<svg aria-hidden="true" style="position: absolute; width: 0; height: 0; overflow: hidden;" version="1.1" xmlns="http://www.w3.org/2000/svg" xmlns:xlink="http://www.w3.org/1999/xlink">
<defs>
<symbol id="icon-phone" viewBox="0 0 32 32">
<path d="M22 20c-2 2-2 4-4 4s-4-2-6-4-4-4-4-6 2-2 4-4-4-8-6-8-6 6-6 6c0 4 4.109 12.109 8 16s12 8 16 8c0 0 6-4 6-6s-6-8-8-6z"></path>
</symbol>
<symbol id="icon-mail4" viewBox="0 0 32 32">
<path d="M16 0c-8.837 0-16 7.163-16 16s7.163 16 16 16 16-7.163 16-16-7.163-16-16-16zM8 8h16c0.286 0 0.563 0.061 0.817 0.177l-8.817 10.286-8.817-10.287c0.254-0.116 0.531-0.177 0.817-0.177zM6 22v-12c0-0.042 0.002-0.084 0.004-0.125l5.864 6.842-5.8 5.8c-0.045-0.167-0.069-0.34-0.069-0.517zM24 24h-16c-0.177 0-0.35-0.024-0.517-0.069l5.691-5.691 2.826 3.297 2.826-3.297 5.691 5.691c-0.167 0.045-0.34 0.069-0.517 0.069zM26 22c0 0.177-0.024 0.35-0.069 0.517l-5.8-5.8 5.865-6.842c0.003 0.041 0.004 0.083 0.004 0.125v12z"></path>
</symbol>
<symbol id="icon-facebook" viewBox="0 0 32 32">
<path d="M19 6h5v-6h-5c-3.86 0-7 3.14-7 7v3h-4v6h4v16h6v-16h5l1-6h-6v-3c0-0.542 0.458-1 1-1z"></path>
</symbol>
<symbol id="icon-instagram" viewBox="0 0 32 32">
<path d="M16 2.881c4.275 0 4.781 0.019 6.462 0.094 1.563 0.069 2.406 0.331 2.969 0.55 0.744 0.288 1.281 0.638 1.837 1.194 0.563 0.563 0.906 1.094 1.2 1.838 0.219 0.563 0.481 1.412 0.55 2.969 0.075 1.688 0.094 2.194 0.094 6.463s-0.019 4.781-0.094 6.463c-0.069 1.563-0.331 2.406-0.55 2.969-0.288 0.744-0.637 1.281-1.194 1.837-0.563 0.563-1.094 0.906-1.837 1.2-0.563 0.219-1.413 0.481-2.969 0.55-1.688 0.075-2.194 0.094-6.463 0.094s-4.781-0.019-6.463-0.094c-1.563-0.069-2.406-0.331-2.969-0.55-0.744-0.288-1.281-0.637-1.838-1.194-0.563-0.563-0.906-1.094-1.2-1.837-0.219-0.563-0.481-1.413-0.55-2.969-0.075-1.688-0.094-2.194-0.094-6.463s0.019-4.781 0.094-6.463c0.069-1.563 0.331-2.406 0.55-2.969 0.288-0.744 0.638-1.281 1.194-1.838 0.563-0.563 1.094-0.906 1.838-1.2 0.563-0.219 1.412-0.481 2.969-0.55 1.681-0.075 2.188-0.094 6.463-0.094zM16 0c-4.344 0-4.887 0.019-6.594 0.094-1.7 0.075-2.869 0.35-3.881 0.744-1.056 0.412-1.95 0.956-2.837 1.85-0.894 0.888-1.438 1.781-1.85 2.831-0.394 1.019-0.669 2.181-0.744 3.881-0.075 1.713-0.094 2.256-0.094 6.6s0.019 4.887 0.094 6.594c0.075 1.7 0.35 2.869 0.744 3.881 0.413 1.056 0.956 1.95 1.85 2.837 0.887 0.887 1.781 1.438 2.831 1.844 1.019 0.394 2.181 0.669 3.881 0.744 1.706 0.075 2.25 0.094 6.594 0.094s4.888-0.019 6.594-0.094c1.7-0.075 2.869-0.35 3.881-0.744 1.050-0.406 1.944-0.956 2.831-1.844s1.438-1.781 1.844-2.831c0.394-1.019 0.669-2.181 0.744-3.881 0.075-1.706 0.094-2.25 0.094-6.594s-0.019-4.887-0.094-6.594c-0.075-1.7-0.35-2.869-0.744-3.881-0.394-1.063-0.938-1.956-1.831-2.844-0.887-0.887-1.781-1.438-2.831-1.844-1.019-0.394-2.181-0.669-3.881-0.744-1.712-0.081-2.256-0.1-6.6-0.1v0z"></path>
<path d="M16 7.781c-4.537 0-8.219 3.681-8.219 8.219s3.681 8.219 8.219 8.219 8.219-3.681 8.219-8.219c0-4.537-3.681-8.219-8.219-8.219zM16 21.331c-2.944 0-5.331-2.387-5.331-5.331s2.387-5.331 5.331-5.331c2.944 0 5.331 2.387 5.331 5.331s-2.387 5.331-5.331 5.331z"></path>
<path d="M26.462 7.456c0 1.060-0.859 1.919-1.919 1.919s-1.919-0.859-1.919-1.919c0-1.060 0.859-1.919 1.919-1.919s1.919 0.859 1.919 1.919z"></path>
</symbol>
<symbol id="icon-twitter" viewBox="0 0 32 32">
<path d="M32 7.075c-1.175 0.525-2.444 0.875-3.769 1.031 1.356-0.813 2.394-2.1 2.887-3.631-1.269 0.75-2.675 1.3-4.169 1.594-1.2-1.275-2.906-2.069-4.794-2.069-3.625 0-6.563 2.938-6.563 6.563 0 0.512 0.056 1.012 0.169 1.494-5.456-0.275-10.294-2.888-13.531-6.862-0.563 0.969-0.887 2.1-0.887 3.3 0 2.275 1.156 4.287 2.919 5.463-1.075-0.031-2.087-0.331-2.975-0.819 0 0.025 0 0.056 0 0.081 0 3.181 2.263 5.838 5.269 6.437-0.55 0.15-1.131 0.231-1.731 0.231-0.425 0-0.831-0.044-1.237-0.119 0.838 2.606 3.263 4.506 6.131 4.563-2.25 1.762-5.075 2.813-8.156 2.813-0.531 0-1.050-0.031-1.569-0.094 2.913 1.869 6.362 2.95 10.069 2.95 12.075 0 18.681-10.006 18.681-18.681 0-0.287-0.006-0.569-0.019-0.85 1.281-0.919 2.394-2.075 3.275-3.394z"></path>
</symbol>
<symbol id="icon-linkedin2" viewBox="0 0 32 32">
<path d="M12 12h5.535v2.837h0.079c0.77-1.381 2.655-2.837 5.464-2.837 5.842 0 6.922 3.637 6.922 8.367v9.633h-5.769v-8.54c0-2.037-0.042-4.657-3.001-4.657-3.005 0-3.463 2.218-3.463 4.509v8.688h-5.767v-18z"></path>
<path d="M2 12h6v18h-6v-18z"></path>
<path d="M8 7c0 1.657-1.343 3-3 3s-3-1.343-3-3c0-1.657 1.343-3 3-3s3 1.343 3 3z"></path>
</symbol>
<symbol id="group1" viewBox="0 0 41 47">
<path fill="var(--icon-color, #000)" clip-rule="evenodd" d="M6 0L13.0078 6.67637L0 6.66866V39.0609H34V26.6758L41 33.3448V0H6ZM33.6924 25.8922L13.8226 6.962H33.6924V25.8922ZM27.5231 34.3227H5.38008V12.5373H6.9453V32.8475H27.5231V34.3227ZM9.7959 45.0611L8.9707 43.3643H8.28955L9.48584 45.6104V46.919H10.1035V45.6104L11.2998 43.3643H10.6211L9.7959 45.0611ZM12.8379 43.3643H12.9844L14.3271 46.919H13.6826L13.395 46.0865H12.0189L11.7319 46.919H11.0898L12.4277 43.3643H12.5718H12.8379ZM12.1864 45.6007H13.2271L12.7062 44.0927L12.1864 45.6007ZM16.4821 45.0117C16.4553 44.9776 16.4295 44.9445 16.4048 44.9122C16.3136 44.7917 16.2428 44.6754 16.1924 44.5631C16.1419 44.4491 16.1167 44.3319 16.1167 44.2115C16.1167 44.026 16.1549 43.8665 16.2314 43.733C16.3079 43.5995 16.4162 43.497 16.5562 43.4254C16.6961 43.3521 16.8597 43.3155 17.0469 43.3155C17.2275 43.3155 17.383 43.3521 17.5132 43.4254C17.645 43.497 17.7459 43.5922 17.8159 43.711C17.8875 43.8298 17.9233 43.96 17.9233 44.1016C17.9233 44.2139 17.903 44.3165 17.8623 44.4093C17.8216 44.502 17.7655 44.5867 17.6938 44.6632C17.6222 44.7397 17.5392 44.8121 17.4448 44.8805L17.1979 45.0602L17.9018 45.8909C17.925 45.8453 17.946 45.7973 17.9648 45.7472C18.0251 45.5909 18.0552 45.4176 18.0552 45.2271H18.563C18.563 45.3997 18.5459 45.5632 18.5117 45.7179C18.4792 45.8725 18.4263 46.0157 18.353 46.1475C18.3233 46.2022 18.2897 46.2545 18.2522 46.3044L18.7729 46.919H18.0918L17.8852 46.676C17.7734 46.7609 17.6518 46.8272 17.5205 46.8751C17.348 46.9369 17.1641 46.9679 16.9688 46.9679C16.7327 46.9679 16.5285 46.9247 16.356 46.8385C16.1834 46.7522 16.05 46.6334 15.9556 46.482C15.8628 46.3306 15.8164 46.1573 15.8164 45.962C15.8164 45.8171 15.8465 45.6902 15.9067 45.5811C15.967 45.4705 16.0492 45.3679 16.1533 45.2735C16.2495 45.1862 16.3591 45.099 16.4821 45.0117ZM16.7738 45.3689L16.7002 45.4224C16.6139 45.4924 16.5496 45.56 16.5073 45.6251C16.4666 45.6886 16.4398 45.7472 16.4268 45.8009C16.4137 45.8546 16.4072 45.9018 16.4072 45.9425C16.4072 46.0466 16.4292 46.141 16.4731 46.2257C16.5187 46.3103 16.5846 46.3778 16.6709 46.4283C16.7588 46.4771 16.8654 46.5015 16.9907 46.5015C17.1258 46.5015 17.2568 46.4714 17.3838 46.4112C17.4474 46.3802 17.5078 46.3429 17.5648 46.2992L16.7738 45.3689ZM16.9143 44.7196L17.1323 44.5728C17.2349 44.5045 17.3081 44.4377 17.3521 44.3726C17.396 44.3059 17.418 44.2229 17.418 44.1236C17.418 44.039 17.3854 43.9609 17.3203 43.8892C17.2552 43.8176 17.1632 43.7818 17.0444 43.7818C16.9614 43.7818 16.8914 43.8013 16.8345 43.8404C16.7775 43.8778 16.7344 43.9283 16.7051 43.9918C16.6774 44.0536 16.6636 44.1228 16.6636 44.1993C16.6636 44.2725 16.6823 44.3482 16.7197 44.4263C16.7572 44.5028 16.8084 44.5834 16.8735 44.668C16.8868 44.685 16.9004 44.7021 16.9143 44.7196ZM23.1333 45.7618H22.5229C22.505 45.9164 22.4676 46.0474 22.4106 46.1549C22.3553 46.2607 22.2731 46.3412 22.1641 46.3966C22.0566 46.4519 21.9159 46.4796 21.7417 46.4796C21.5985 46.4796 21.4756 46.4511 21.373 46.3941C21.2705 46.3372 21.1859 46.2566 21.1191 46.1524C21.054 46.0483 21.0052 45.9237 20.9727 45.7789C20.9417 45.6324 20.9263 45.4696 20.9263 45.2906V44.9903C20.9263 44.8015 20.9434 44.6339 20.9775 44.4874C21.0133 44.3393 21.0662 44.2148 21.1362 44.1138C21.2062 44.0129 21.2933 43.9364 21.3975 43.8844C21.5016 43.8323 21.6237 43.8062 21.7637 43.8062C21.9346 43.8062 22.0729 43.8355 22.1787 43.8941C22.2845 43.9511 22.3643 44.0341 22.418 44.1431C22.4733 44.2522 22.5091 44.3832 22.5254 44.5362H23.1357C23.1113 44.2986 23.0446 44.0878 22.9355 43.9039C22.8281 43.72 22.6768 43.5759 22.4814 43.4718C22.2861 43.3676 22.0469 43.3155 21.7637 43.3155C21.5407 43.3155 21.3397 43.3546 21.1606 43.4327C20.9832 43.5108 20.8311 43.6239 20.7041 43.7721C20.5771 43.9185 20.4795 44.0951 20.4111 44.3018C20.3444 44.5085 20.311 44.7397 20.311 44.9952V45.2906C20.311 45.5461 20.3436 45.7773 20.4087 45.984C20.4754 46.1907 20.5715 46.3673 20.6968 46.5138C20.8221 46.6586 20.9727 46.7709 21.1484 46.8507C21.3242 46.9288 21.522 46.9679 21.7417 46.9679C22.0282 46.9679 22.2715 46.9158 22.4717 46.8116C22.6719 46.7074 22.8273 46.565 22.938 46.3844C23.0487 46.2021 23.1138 45.9945 23.1333 45.7618ZM26.5244 45.2393V45.044C26.5244 44.7755 26.4886 44.5354 26.417 44.3238C26.347 44.1106 26.2469 43.9291 26.1167 43.7794C25.9865 43.628 25.8311 43.5133 25.6504 43.4351C25.4697 43.3554 25.2695 43.3155 25.0498 43.3155C24.8317 43.3155 24.6323 43.3554 24.4517 43.4351C24.2726 43.5133 24.1172 43.628 23.9854 43.7794C23.8551 43.9291 23.7542 44.1106 23.6826 44.3238C23.611 44.5354 23.5752 44.7755 23.5752 45.044V45.2393C23.5752 45.5079 23.611 45.7488 23.6826 45.962C23.7559 46.1752 23.8584 46.3567 23.9902 46.5064C24.1221 46.6562 24.2775 46.7709 24.4565 46.8507C24.6372 46.9288 24.8366 46.9679 25.0547 46.9679C25.2744 46.9679 25.4746 46.9288 25.6553 46.8507C25.8359 46.7709 25.9906 46.6562 26.1191 46.5064C26.2493 46.3567 26.3494 46.1752 26.4194 45.962C26.4894 45.7488 26.5244 45.5079 26.5244 45.2393ZM25.9116 45.0391V45.2393C25.9116 45.4379 25.8921 45.6137 25.853 45.7667C25.8156 45.9197 25.7603 46.0491 25.687 46.1549C25.6138 46.259 25.5243 46.338 25.4185 46.3917C25.3127 46.4438 25.1914 46.4698 25.0547 46.4698C24.9196 46.4698 24.7992 46.4438 24.6934 46.3917C24.5876 46.338 24.4964 46.259 24.4199 46.1549C24.3451 46.0491 24.2881 45.9197 24.249 45.7667C24.21 45.6137 24.1904 45.4379 24.1904 45.2393V45.0391C24.1904 44.8406 24.21 44.6656 24.249 44.5142C24.2881 44.3612 24.3442 44.2335 24.4175 44.1309C24.4923 44.0268 24.5827 43.9486 24.6885 43.8966C24.7943 43.8429 24.9147 43.816 25.0498 43.816C25.1849 43.816 25.3062 43.8429 25.4136 43.8966C25.521 43.9486 25.6113 44.0268 25.6846 44.1309C25.7594 44.2335 25.8156 44.3612 25.853 44.5142C25.8921 44.6656 25.9116 44.8406 25.9116 45.0391Z"
                  />
</symbol>
                <symbol id="group2" viewBox="0 0 40 52">
                  <path
                    fill="var(--icon-color, #000)"
                    clip-rule="evenodd"
                    d="M17.1136 2.93452H16.977C16.7671 2.92181 16.5571 2.91672 16.3471 2.91163H16.3471H16.3269H15.8918C15.4946 2.91163 15.0898 2.92181 14.6876 2.94215C14.6573 2.93994 14.6269 2.93994 14.5966 2.94215C10.9522 3.14863 7.38171 4.05951 4.08049 5.62492L3.6479 5.83344V27.9746L4.65979 27.6313C5.54773 27.3261 6.49384 27.0515 7.47285 26.7972C10.1193 26.1178 12.8367 25.7567 15.568 25.7216V28.6306C15.2062 28.6332 14.8546 28.6434 14.503 28.6612H14.4195C12.3175 28.7765 10.2317 29.0967 8.19129 29.6173C5.60716 30.2643 3.11433 31.2357 0.771606 32.5086V4.11189C3.20469 2.69275 5.82533 1.62687 8.55557 0.945963C10.9527 0.327052 13.4169 0.00930695 15.8918 0H16.3193C16.8303 0.0127146 17.3287 0.0356008 17.7967 0.0712015C19.0297 0.157776 20.2528 0.352628 21.4521 0.653528V3.51685C20.2874 3.24551 19.1032 3.06695 17.9105 2.98284C17.8863 2.98079 17.8621 2.97872 17.8379 2.97666C17.5911 2.95561 17.344 2.93452 17.1136 2.93452ZM22.1528 5.86138C22.7877 5.9097 23.4455 5.93259 24.1108 5.93259C26.7125 5.92307 29.3031 5.59083 31.8239 4.94339C34.4068 4.29396 36.8986 3.32178 39.2411 2.04956V29.9402C36.8067 31.3585 34.1853 32.4243 31.4546 33.1061C29.0571 33.7227 26.5931 34.0395 24.1184 34.0496C22.2433 34.0647 20.3737 33.8443 18.553 33.3935V5.32229C18.983 5.42146 19.4257 5.51301 19.876 5.58929C20.6147 5.7139 21.3939 5.80544 22.1528 5.86138ZM36.3471 6.07753L35.3352 6.41828C34.4042 6.73106 33.4657 7.01078 32.5221 7.25998C29.7749 7.96596 26.9514 8.3281 24.1158 8.33818C23.4556 8.33818 22.8485 8.32038 22.2616 8.28224L21.4546 8.22883V28.3178V31.0057L22.1477 31.0667C22.7903 31.1227 23.4531 31.1506 24.1209 31.1506C26.3544 31.1412 28.5781 30.8533 30.7412 30.2937C32.5223 29.8469 34.2552 29.2243 35.9145 28.4348L36.3471 28.2263V6.07753Z"
                  />
                  <path
                    fill="var(--icon-color, #000)" d="M2.73713 42.2124C2.59166 42.0615 2.41629 41.943 2.22236 41.8646C2.02844 41.7862 1.82029 41.7496 1.61141 41.7572C1.38879 41.7542 1.16781 41.7957 0.961267 41.8793C0.771901 41.9547 0.599767 42.068 0.455322 42.2124C0.312451 42.3572 0.201292 42.5304 0.128988 42.721C0.0496792 42.9207 0.0101425 43.1341 0.0126205 43.3491V47.1431C0.00357283 47.4104 0.0545882 47.6764 0.161874 47.9212C0.251433 48.1156 0.380725 48.2889 0.541333 48.4298C0.692953 48.5575 0.870978 48.6495 1.06246 48.6994C1.24694 48.7512 1.43755 48.7777 1.62911 48.7782C1.84041 48.7803 2.04953 48.7351 2.24131 48.646C2.43095 48.563 2.60277 48.4438 2.74725 48.295C2.88814 48.1476 3.00052 47.9752 3.07865 47.7864C3.15973 47.5951 3.20105 47.3892 3.20007 47.1812V46.7566H2.20842V47.0948C2.21137 47.2103 2.1916 47.3252 2.15024 47.433C2.11794 47.5137 2.06877 47.5866 2.00604 47.6466C1.94461 47.6962 1.87416 47.7334 1.79861 47.7559C1.73164 47.7782 1.6617 47.7902 1.59117 47.7915C1.50263 47.8018 1.41296 47.7885 1.33122 47.7527C1.24948 47.717 1.17858 47.6602 1.1257 47.5881C1.03222 47.4356 0.986395 47.2585 0.994154 47.0795V43.5423C0.988002 43.3462 1.02969 43.1515 1.11558 42.9753C1.16706 42.8952 1.2399 42.8313 1.32578 42.7908C1.41166 42.7503 1.50713 42.7349 1.60129 42.7464C1.68676 42.7434 1.7717 42.7612 1.8488 42.7984C1.92591 42.8356 1.99289 42.8911 2.04399 42.96C2.15496 43.1057 2.21298 43.2852 2.20842 43.4686V43.7966H3.18995V43.4101C3.19195 43.1831 3.15073 42.9578 3.06853 42.7464C2.99527 42.5476 2.88251 42.3659 2.73713 42.2124Z"
                  />
                  <path
                    fill="var(--icon-color, #000)" d="M8.62892 42.1691C8.31271 41.9021 7.91362 41.7546 7.50066 41.7521C7.29868 41.7529 7.09838 41.7891 6.9087 41.8589C6.71613 41.9279 6.53841 42.0332 6.38505 42.1691C6.22076 42.3168 6.08968 42.498 6.00053 42.7006C5.90063 42.9323 5.85146 43.183 5.85634 43.4355V47.0744C5.8495 47.3304 5.89873 47.5847 6.00053 47.8195C6.09028 48.0151 6.22152 48.1887 6.38505 48.328C6.53665 48.4688 6.71468 48.5777 6.9087 48.6485C7.09838 48.7183 7.29868 48.7544 7.50066 48.7553C7.70269 48.7549 7.90307 48.7187 8.09262 48.6485C8.28995 48.5767 8.47195 48.468 8.62892 48.328C8.7871 48.1861 8.91454 48.013 9.00332 47.8195C9.10512 47.5847 9.15435 47.3304 9.14751 47.0744V43.4355C9.15239 43.183 9.10322 42.9323 9.00332 42.7006C8.91505 42.5001 8.78775 42.3194 8.62892 42.1691ZM8.16598 47.0744C8.17434 47.1714 8.16095 47.269 8.1268 47.3601C8.09265 47.4512 8.03861 47.5334 7.96866 47.6008C7.83768 47.7106 7.67251 47.7708 7.50193 47.7708C7.33135 47.7708 7.16617 47.7106 7.03519 47.6008C6.96524 47.5334 6.9112 47.4512 6.87705 47.3601C6.8429 47.269 6.82952 47.1714 6.83787 47.0744V43.4355C6.82952 43.3385 6.8429 43.2409 6.87705 43.1498C6.9112 43.0587 6.96524 42.9764 7.03519 42.9091C7.16617 42.7993 7.33135 42.7391 7.50193 42.7391C7.67251 42.7391 7.83768 42.7993 7.96866 42.9091C8.03861 42.9764 8.09265 43.0587 8.1268 43.1498C8.16095 43.2409 8.17434 43.3385 8.16598 43.4355V47.0744Z"
                  />
                  <path
                    fill="var(--icon-color, #000)" d="M16.3673 48.6994V41.8107H15.4136L14.1614 45.4572H14.1437L12.8813 41.8107H11.9377V48.6994H12.9218V44.5087H12.9395L13.9033 47.4712H14.3941L15.3655 44.5087H15.3832V48.6994H16.3673Z"
                  />
                  <path
                    fill="var(--icon-color, #000)" d="M21.9581 42.2937C21.8065 42.1237 21.6153 41.9943 21.4015 41.9173C21.1712 41.8424 20.9302 41.8063 20.6881 41.8105H19.226V48.6993H20.2075V46.0089H20.7134C21.0197 46.0228 21.3244 45.958 21.5988 45.8207C21.822 45.6968 22.0081 45.515 22.1377 45.2943C22.2512 45.1111 22.3277 44.9071 22.3628 44.6942C22.4014 44.435 22.4192 44.173 22.4159 43.911C22.4255 43.5802 22.3932 43.2495 22.3198 42.9269C22.2543 42.6885 22.1299 42.4706 21.9581 42.2937ZM21.4521 44.3941C21.4479 44.5188 21.4168 44.6412 21.361 44.7527C21.3049 44.8586 21.2162 44.9434 21.1081 44.9942C20.9627 45.0593 20.8041 45.0889 20.6451 45.0807H20.1974V42.7387H20.7033C20.8557 42.7312 21.0075 42.7609 21.146 42.8251C21.2475 42.8834 21.3281 42.9724 21.3762 43.0794C21.4299 43.2004 21.4591 43.331 21.4622 43.4634C21.4622 43.6084 21.4622 43.7609 21.4622 43.9211C21.4622 44.0813 21.4723 44.2466 21.4622 44.3941H21.4521Z"
                  />
                  <path
                    fill="var(--icon-color, #000)" d="M26.6077 41.8107H25.8032L24.2854 48.6994H25.2669L25.5553 47.2194H26.8935L27.1819 48.6994H28.1635L26.6077 41.8107ZM25.702 46.2811L26.1852 43.784H26.2029L26.6836 46.2811H25.702Z"
                  />
                  <path
                    fill="var(--icon-color, #000)" d="M32.9497 45.9607H32.932L31.4496 41.8107H30.506V48.6994H31.4875V44.557H31.5078L33.0079 48.6994H33.9312V41.8107H32.9497V45.9607Z"
                  />
                  <path
                    fill="var(--icon-color, #000)" d="M38.9476 41.8107L38.1583 44.5494H38.1381L37.3488 41.8107H36.3091L37.6574 45.7878V48.6994H38.639V45.7878L39.9873 41.8107H38.9476Z"
                  />
                  <path
                    fill="var(--icon-color, #000)" d="M0 50.6445H0.473058V51.9719H0.794333V50.6445H1.26486V50.3724H0V50.6445Z"
                  />
                  <path
                    fill="var(--icon-color, #000)" d="M3.97672 50.3724L3.35693 51.9719H3.69845L3.82999 51.6083H4.46748L4.60409 51.9719H4.95319L4.31823 50.3724H3.97672ZM3.92612 51.3387L4.14368 50.7462L4.36123 51.3387H3.92612Z"
                  />
                  <path
                    fill="var(--icon-color, #000)" d="M7.90793 51.3821H8.27727V51.5881C8.16941 51.6746 8.03576 51.722 7.89781 51.7229C7.8333 51.7265 7.76886 51.7145 7.70988 51.688C7.65091 51.6614 7.59911 51.6211 7.55883 51.5703C7.47402 51.4485 7.43217 51.3017 7.43993 51.1533C7.43993 50.7973 7.59424 50.6193 7.90034 50.6193C7.98091 50.6112 8.06168 50.6325 8.12804 50.6791C8.19439 50.7257 8.24194 50.7947 8.26209 50.8735L8.57831 50.8125C8.51001 50.4997 8.28486 50.3421 7.90034 50.3421C7.69468 50.3366 7.4947 50.4103 7.34127 50.5481C7.26069 50.6276 7.19834 50.7239 7.15858 50.8302C7.11882 50.9365 7.10261 51.0502 7.11107 51.1634C7.10175 51.3823 7.17493 51.5966 7.31598 51.7636C7.39434 51.8444 7.4892 51.9071 7.59401 51.9475C7.69883 51.9879 7.8111 52.0049 7.92311 51.9975C8.17338 52.0045 8.41652 51.9133 8.60108 51.7432V51.1126H7.90793V51.3821Z"
                  />
                  <path
                    fill="var(--icon-color, #000)" d="M11.9226 50.3724H11.5988V51.9719H12.7194V51.6998H11.9226V50.3724Z"
                  />
                  <path d="M15.3175 50.3724H14.9937V51.9719H15.3175V50.3724Z" />
                  <path
                    fill="var(--icon-color, #000)" d="M18.6365 51.4405L17.9813 50.3724H17.6676V51.9719H17.9686V50.9268L18.6112 51.9719H18.9325V50.3724H18.6365V51.4405Z"
                  />
                  <path
                    fill="var(--icon-color, #000)" d="M21.6368 51.2675H22.4337V50.9954H21.6368V50.6445H22.4944V50.3724H21.313V51.9719H22.5273V51.6998H21.6368V51.2675Z"
                  />
                  <path
                    fill="var(--icon-color, #000)" d="M28.9122 51.0031H28.2823V50.3724H27.9611V51.9719H28.2823V51.2726H28.9122V51.9719H29.2335V50.3724H28.9122V51.0031Z"
                  />
                  <path
                    fill="var(--icon-color, #000)" d="M31.9302 51.2675H32.7296V50.9954H31.9302V50.6445H32.7903V50.3724H31.6089V51.9719H32.8206V51.6998H31.9302V51.2675Z"
                  />
                  <path
                    fill="var(--icon-color, #000)" d="M36.0233 51.2676C36.3015 51.2244 36.4432 51.0769 36.4432 50.8226C36.4513 50.7546 36.441 50.6856 36.4134 50.623C36.3858 50.5603 36.3419 50.5063 36.2863 50.4666C36.1415 50.3938 35.9799 50.3614 35.8183 50.3725H35.1404V51.972H35.4617V51.3032H35.5249C35.5934 51.299 35.6619 51.3112 35.7247 51.3388C35.7717 51.3678 35.8108 51.4079 35.8386 51.4558L36.1877 51.9644H36.5722L36.3774 51.6516C36.2913 51.4972 36.1699 51.3656 36.0233 51.2676ZM35.6994 51.0464H35.4617V50.6446H35.7146C35.8248 50.6357 35.9357 50.6486 36.041 50.6827C36.0644 50.7034 36.0828 50.7291 36.095 50.7579C36.1072 50.7867 36.1127 50.8179 36.1113 50.8492C36.1098 50.8804 36.1014 50.911 36.0866 50.9385C36.0718 50.966 36.051 50.9899 36.0258 51.0082C35.9202 51.0406 35.8096 51.0535 35.6994 51.0464Z"
                  />
                </symbol>
                <symbol id="group3" viewBox="0 0 44 41">
                  <path
                    fill="var(--icon-color, #000)" d="M6.80982 40.2233C6.82594 40.2236 6.8418 40.2268 6.85649 40.2324C6.87118 40.2381 6.88441 40.2462 6.89539 40.2563L7.11622 40.4639C6.94481 40.6319 6.73295 40.7662 6.49514 40.8578C6.21665 40.9577 5.91652 41.0059 5.61459 40.9993C5.33087 41.0043 5.04899 40.9593 4.78649 40.8672C4.5497 40.7826 4.33695 40.6555 4.16265 40.4945C3.98476 40.3275 3.84773 40.1319 3.75964 39.919C3.66316 39.6817 3.61553 39.4319 3.61886 39.1807C3.61494 38.9279 3.66644 38.6766 3.77068 38.44C3.86711 38.2258 4.01256 38.0301 4.19853 37.8645C4.38702 37.702 4.6125 37.5744 4.86102 37.4894C5.13289 37.3994 5.4224 37.3545 5.71396 37.3573C5.9848 37.3517 6.2542 37.3926 6.50618 37.4776C6.72481 37.5587 6.92554 37.6712 7.09966 37.8102L6.91471 38.0319C6.90194 38.0475 6.88606 38.0611 6.86779 38.072C6.84597 38.0848 6.8196 38.0907 6.79326 38.0886C6.76461 38.0869 6.73699 38.0787 6.71321 38.065L6.61384 38.006L6.47582 37.9305C6.41624 37.9025 6.35444 37.8781 6.29088 37.8574C6.209 37.8324 6.12503 37.8126 6.03968 37.7984C5.93136 37.7814 5.82134 37.7735 5.7112 37.7748C5.50125 37.7726 5.29289 37.8063 5.09841 37.8739C4.91703 37.9365 4.75331 38.0314 4.61811 38.1522C4.48046 38.2807 4.3744 38.4315 4.30619 38.5957C4.22844 38.7835 4.19013 38.9815 4.19301 39.1807C4.1897 39.3829 4.228 39.5841 4.30619 39.7751C4.37354 39.9378 4.47765 40.0877 4.61258 40.2162C4.73901 40.336 4.89572 40.4295 5.0708 40.4898C5.25098 40.5536 5.44439 40.5857 5.63943 40.5842C5.7521 40.5856 5.86472 40.5793 5.9762 40.5653C6.15822 40.5463 6.33282 40.4923 6.48686 40.4072C6.56412 40.3637 6.63706 40.3148 6.70493 40.261C6.7333 40.2379 6.77063 40.2244 6.80982 40.2233Z"
                  />
                  <path
                    fill="var(--icon-color, #000)" d="M13.1861 39.1803C13.1896 39.4305 13.139 39.6792 13.0371 39.9138C12.9471 40.1266 12.8054 40.3207 12.6213 40.4834C12.4371 40.646 12.2148 40.7734 11.9688 40.8573C11.4284 41.0334 10.831 41.0334 10.2906 40.8573C10.0462 40.7721 9.82526 40.6444 9.64188 40.4822C9.45787 40.3167 9.31513 40.1209 9.22231 39.9067C9.02347 39.4317 9.02347 38.9124 9.22231 38.4373C9.31648 38.2231 9.45904 38.0267 9.64188 37.8595C9.82682 37.7024 10.0476 37.5796 10.2906 37.4986C10.8303 37.3193 11.4291 37.3193 11.9688 37.4986C12.214 37.5837 12.4359 37.7114 12.6203 37.8736C12.802 38.0376 12.9437 38.2308 13.0371 38.442C13.1393 38.6782 13.1899 38.9285 13.1861 39.1803ZM12.6065 39.1803C12.6108 38.9801 12.5753 38.7807 12.5016 38.5906C12.4397 38.4278 12.3392 38.2777 12.2062 38.1496C12.0768 38.0284 11.9174 37.9333 11.7397 37.8713C11.347 37.7423 10.9123 37.7423 10.5197 37.8713C10.3419 37.9333 10.1826 38.0284 10.0532 38.1496C9.91837 38.2769 9.81675 38.4272 9.75506 38.5906C9.61461 38.9746 9.61461 39.386 9.75506 39.7699C9.81736 39.9331 9.9189 40.0833 10.0532 40.211C10.1828 40.3315 10.3421 40.4257 10.5197 40.487C10.913 40.6126 11.3463 40.6126 11.7397 40.487C11.9173 40.4257 12.0766 40.3315 12.2062 40.211C12.3386 40.0826 12.4391 39.9325 12.5016 39.7699C12.5757 39.5799 12.6111 39.3805 12.6065 39.1803Z"
                  />
                  <path
                    fill="var(--icon-color, #000)" d="M17.5365 39.7987L17.5944 39.9308C17.6165 39.8836 17.6358 39.8412 17.6579 39.7987C17.679 39.7544 17.7029 39.7111 17.7297 39.669L19.1402 37.4781C19.1678 37.4404 19.1927 37.4168 19.2203 37.4097C19.2578 37.4 19.297 37.396 19.3362 37.3979H19.753V40.9614H19.2589V38.3413C19.2589 38.3083 19.2589 38.2705 19.2589 38.2304C19.2562 38.1896 19.2562 38.1486 19.2589 38.1078L17.8401 40.3293C17.8221 40.3626 17.7933 40.3908 17.757 40.4104C17.7208 40.4301 17.6787 40.4404 17.6358 40.4402H17.5558C17.5128 40.4407 17.4706 40.4305 17.4343 40.4108C17.398 40.3911 17.3692 40.3628 17.3515 40.3293L15.8913 38.0937C15.8913 38.1361 15.8913 38.1786 15.8913 38.221C15.8913 38.2635 15.8913 38.3012 15.8913 38.3342V40.9543H15.4138V37.3979H15.8306C15.8697 37.396 15.909 37.4 15.9465 37.4097C15.9807 37.4242 16.008 37.4484 16.0238 37.4781L17.4647 39.6714C17.493 39.7119 17.517 39.7545 17.5365 39.7987Z"
                  />
                  <path
                    fill="var(--icon-color, #000)" d="M22.8447 39.6217V40.9564H22.2926V37.3978H23.5237C23.7561 37.394 23.9878 37.4202 24.211 37.4756C24.3897 37.5189 24.5554 37.5945 24.6969 37.6973C24.8195 37.7937 24.914 37.9132 24.9729 38.0463C25.0381 38.1915 25.0699 38.346 25.0667 38.5015C25.0692 38.6576 25.0344 38.8124 24.9646 38.9566C24.8983 39.0932 24.7963 39.215 24.6665 39.3127C24.5249 39.4198 24.3584 39.5002 24.1779 39.5486C23.963 39.6072 23.7382 39.6351 23.5127 39.6311L22.8447 39.6217ZM22.8447 39.2396H23.5127C23.6578 39.2412 23.8022 39.2229 23.9405 39.1854C24.0546 39.1526 24.1598 39.1004 24.2497 39.0321C24.3326 38.9668 24.3968 38.8862 24.4374 38.7963C24.4826 38.7012 24.5051 38.5994 24.5036 38.4968C24.5101 38.3978 24.4912 38.2989 24.4483 38.2069C24.4054 38.1148 24.3395 38.0319 24.2552 37.9638C24.0443 37.8231 23.7794 37.755 23.5127 37.7728H22.8447V39.2396Z"
                  />
                  <path
                    fill="var(--icon-color, #000)" d="M30.2645 40.9613H29.8283C29.7846 40.9627 29.7416 40.951 29.7069 40.9282C29.6756 40.906 29.651 40.8777 29.6351 40.8457L29.2597 39.9848H27.3744L26.9852 40.8457C26.9709 40.8772 26.9471 40.9048 26.9162 40.9259C26.8811 40.95 26.837 40.9626 26.792 40.9613H26.3558L28.012 37.3975H28.5862L30.2645 40.9613ZM27.5317 39.6381H29.0886L28.4316 38.1876C28.3814 38.0785 28.3399 37.9666 28.3074 37.8527L28.2439 38.039C28.2246 38.0956 28.2025 38.1475 28.1832 38.1899L27.5317 39.6381Z"
                  />
                  <path
                    fill="var(--icon-color, #000)" d="M32.6495 37.414C32.6825 37.4295 32.7109 37.4513 32.7323 37.4777L35.1476 40.1641C35.1476 40.1216 35.1476 40.0792 35.1476 40.0391C35.1476 39.999 35.1476 39.9589 35.1476 39.9212V37.3975H35.6417V40.9613H35.3657C35.3265 40.9623 35.2876 40.955 35.2525 40.9401C35.2184 40.9231 35.1884 40.9006 35.1642 40.874L32.7517 38.19C32.7543 38.2309 32.7543 38.2718 32.7517 38.3126C32.7517 38.3527 32.7517 38.3881 32.7517 38.4211V40.9613H32.2576V37.3975H32.5502C32.5843 37.3967 32.6182 37.4024 32.6495 37.414Z"
                  />
                  <path
                    fill="var(--icon-color, #000)" d="M39.7104 39.5438V40.9589H39.1583V39.5438L37.6318 37.3975H38.1259C38.1685 37.3954 38.2106 37.4062 38.2446 37.4282C38.2747 37.4511 38.2999 37.4782 38.3192 37.5084L39.2743 38.8928C39.3129 38.9518 39.346 39.006 39.3736 39.0579C39.4012 39.1098 39.4233 39.1593 39.4426 39.2089L39.5144 39.0556C39.5412 38.9995 39.5726 38.9451 39.6083 38.8928L40.5495 37.4989C40.5693 37.4711 40.5935 37.4457 40.6213 37.4235C40.6541 37.399 40.6966 37.3864 40.74 37.3881H41.2396L39.7104 39.5438Z"
                  />
                  <path
                    fill="var(--icon-color, #000)" d="M17.2632 31.417C17.5033 31.4429 17.7462 31.4642 17.9919 31.483C21.7165 30.0595 24.8673 27.7295 27.0506 24.7844C29.2338 21.8393 30.3527 18.4097 30.2672 14.9243L26.1626 11.4172C26.9972 15.1281 26.6068 18.9642 25.0351 22.4963C23.4634 26.0284 20.7724 29.1171 17.2632 31.417Z"
                  />
                  <path
                    fill="var(--icon-color, #000)" d="M15.7975 31.2539L15.9079 31.2728C19.6578 28.9811 22.5168 25.7809 24.1151 22.0861C25.7135 18.3912 25.9776 14.3717 24.8735 10.5472L19.0271 5.55212C21.3918 9.65797 22.3436 14.253 21.7719 18.8029C21.2002 23.3528 19.1284 27.6705 15.7975 31.2539Z"
                  />
                  <path
                    fill="var(--icon-color, #000)" d="M35.6251 19.0424C34.6318 22.872 32.2195 26.3258 28.7463 28.8911C27.7319 29.6444 26.6378 30.3155 25.478 30.8957C28.3062 30.1855 30.9057 28.9298 33.0761 27.2255C35.2465 25.5213 36.9298 23.4139 37.9962 21.0659L35.6251 19.0424Z"
                  />
                  <path
                    fill="var(--icon-color, #000)" d="M34.6948 18.4784L31.3189 15.594C31.2544 18.8825 30.1602 22.0963 28.15 24.9012C26.1399 27.7062 23.2871 30 19.8883 31.5442H19.9049C20.6623 31.5439 21.419 31.5053 22.1711 31.4286C25.3475 30.3209 28.1535 28.5586 30.3388 26.2989C32.524 24.0392 34.0206 21.3525 34.6948 18.4784Z"
                  />
                  <path
                    fill="var(--icon-color, #000)" d="M16.2861 3.4457L12.2587 0C8.65843 1.18869 5.56201 3.27837 3.37474 5.99553C1.18746 8.7127 0.0112346 11.9308 0 15.2285H0C0.0134937 18.8725 1.44899 22.4085 4.0793 25.2769C6.7096 28.1454 10.3845 30.1824 14.5222 31.0656C18.216 27.2205 20.3786 22.4693 20.6958 17.5023C21.013 12.5353 19.4683 7.6113 16.2861 3.4457Z"
                  />
                </symbol>
                <symbol id="group4" viewBox="0 0 84 41">
                  <path
                    fill="var(--icon-color, #000)" d="M13.0782 12.5179H13.0753C10.6897 12.5179 8.75574 14.2616 8.75574 16.4124V16.415C8.75574 18.5658 10.6897 20.3094 13.0753 20.3094H13.0782C15.4638 20.3094 17.3978 18.5658 17.3978 16.415V16.4124C17.3978 14.2616 15.4638 12.5179 13.0782 12.5179Z"
                  />
                  <path
                    fill="var(--icon-color, #000)" d="M44.9614 11.273C44.9547 8.2855 43.6356 5.42211 41.2929 3.30942C38.9502 1.19673 35.7746 0.00678345 32.4611 0V0C29.1466 0.00542712 25.9696 1.19477 23.6257 3.30761C21.2817 5.42045 19.9619 8.28461 19.9551 11.273V27.7472C19.9551 27.7472 44.9586 25.2364 44.9614 11.2755V11.273Z"
                  />
                  <path
                    fill="var(--icon-color, #000)" d="M0 33.1543C0.00600975 35.233 0.924346 37.2251 2.55434 38.6952C4.18433 40.1653 6.39345 40.9939 8.69898 41C11.004 40.9939 13.2127 40.1657 14.8426 38.6961C16.4725 37.2265 17.3912 35.2351 17.398 33.1569V21.6938C17.398 21.6938 0 23.4422 0 33.1543ZM8.69898 35.2082C8.24844 35.2082 7.80802 35.0877 7.43341 34.862C7.0588 34.6364 6.76683 34.3156 6.59441 33.9403C6.422 33.565 6.37689 33.152 6.46479 32.7536C6.55268 32.3552 6.76964 31.9893 7.08822 31.702C7.40679 31.4148 7.81269 31.2192 8.25457 31.1399C8.69645 31.0607 9.15448 31.1014 9.57072 31.2568C9.98696 31.4123 10.3427 31.6755 10.593 32.0133C10.8433 32.351 10.9769 32.7481 10.9769 33.1543C10.9781 33.4247 10.92 33.6926 10.806 33.9427C10.692 34.1927 10.5244 34.4201 10.3128 34.6116C10.1011 34.8031 9.84963 34.9551 9.5727 35.0588C9.29576 35.1625 8.99885 35.2159 8.69898 35.2159V35.2082Z"
                  />
                  <path
                    fill="var(--icon-color, #000)" d="M24.6089 31.515V35.7806H23.73V31.515H24.6089ZM26.3081 33.3373V34.0228H24.3687V33.3373H26.3081ZM26.5132 31.515V32.2035H24.3687V31.515H26.5132ZM30.5269 33.5482V33.7504C30.5269 34.0746 30.4829 34.3656 30.395 34.6234C30.3071 34.8812 30.1831 35.101 30.0229 35.2826C29.8628 35.4623 29.6714 35.6 29.4487 35.6957C29.228 35.7914 28.9829 35.8392 28.7134 35.8392C28.4458 35.8392 28.2007 35.7914 27.978 35.6957C27.7573 35.6 27.5659 35.4623 27.4038 35.2826C27.2417 35.101 27.1157 34.8812 27.0259 34.6234C26.938 34.3656 26.894 34.0746 26.894 33.7504V33.5482C26.894 33.222 26.938 32.931 27.0259 32.6752C27.1138 32.4174 27.2378 32.1976 27.3979 32.016C27.5601 31.8344 27.7515 31.6957 27.9722 31.6C28.1948 31.5043 28.4399 31.4564 28.7075 31.4564C28.9771 31.4564 29.2222 31.5043 29.4429 31.6C29.6655 31.6957 29.8569 31.8344 30.0171 32.016C30.1792 32.1976 30.3042 32.4174 30.3921 32.6752C30.4819 32.931 30.5269 33.222 30.5269 33.5482ZM29.6392 33.7504V33.5424C29.6392 33.3158 29.6187 33.1166 29.5776 32.9447C29.5366 32.7728 29.4761 32.6283 29.396 32.5111C29.3159 32.3939 29.2183 32.306 29.103 32.2474C28.9878 32.1869 28.856 32.1566 28.7075 32.1566C28.5591 32.1566 28.4272 32.1869 28.312 32.2474C28.1987 32.306 28.1021 32.3939 28.022 32.5111C27.9438 32.6283 27.8843 32.7728 27.8433 32.9447C27.8022 33.1166 27.7817 33.3158 27.7817 33.5424V33.7504C27.7817 33.975 27.8022 34.1742 27.8433 34.348C27.8843 34.5199 27.9448 34.6654 28.0249 34.7845C28.105 34.9017 28.2026 34.9906 28.3179 35.0511C28.4331 35.1117 28.5649 35.142 28.7134 35.142C28.8618 35.142 28.9937 35.1117 29.1089 35.0511C29.2241 34.9906 29.3208 34.9017 29.3989 34.7845C29.4771 34.6654 29.5366 34.5199 29.5776 34.348C29.6187 34.1742 29.6392 33.975 29.6392 33.7504ZM33.3804 34.6644C33.3804 34.5883 33.3687 34.5199 33.3452 34.4594C33.3237 34.3969 33.2827 34.3402 33.2222 34.2894C33.1616 34.2367 33.0767 34.1849 32.9673 34.1342C32.8579 34.0834 32.7163 34.0306 32.5425 33.976C32.3491 33.9135 32.1655 33.8431 31.9917 33.765C31.8198 33.6869 31.6675 33.5961 31.5347 33.4926C31.4038 33.3871 31.3003 33.265 31.2241 33.1263C31.1499 32.9877 31.1128 32.8265 31.1128 32.6429C31.1128 32.4652 31.1519 32.3041 31.23 32.1595C31.3081 32.0131 31.4175 31.8881 31.5581 31.7845C31.6987 31.6791 31.8647 31.598 32.0562 31.5414C32.2495 31.4847 32.4614 31.4564 32.6919 31.4564C33.0063 31.4564 33.2808 31.5131 33.5151 31.6263C33.7495 31.7396 33.9312 31.8949 34.0601 32.0922C34.1909 32.2894 34.2563 32.515 34.2563 32.7689H33.3833C33.3833 32.6439 33.3569 32.5345 33.3042 32.4408C33.2534 32.3451 33.1753 32.2699 33.0698 32.2152C32.9663 32.1605 32.8354 32.1332 32.6772 32.1332C32.5249 32.1332 32.3979 32.1566 32.2964 32.2035C32.1948 32.2484 32.1187 32.3099 32.0679 32.3881C32.0171 32.4642 31.9917 32.5502 31.9917 32.6459C31.9917 32.7181 32.0093 32.7836 32.0444 32.8422C32.0815 32.9008 32.1362 32.9554 32.2085 33.0062C32.2808 33.057 32.3696 33.1049 32.4751 33.1498C32.5806 33.1947 32.7026 33.2386 32.8413 33.2816C33.0737 33.3519 33.2778 33.431 33.4536 33.5189C33.6313 33.6068 33.7798 33.7054 33.8989 33.8148C34.0181 33.9242 34.1079 34.0482 34.1685 34.1869C34.229 34.3256 34.2593 34.4828 34.2593 34.6586C34.2593 34.8441 34.2231 35.0101 34.1509 35.1566C34.0786 35.3031 33.9741 35.4271 33.8374 35.5287C33.7007 35.6302 33.5376 35.7074 33.3481 35.7601C33.1587 35.8129 32.9468 35.8392 32.7124 35.8392C32.5015 35.8392 32.2935 35.8119 32.0884 35.7572C31.8833 35.7006 31.6968 35.6156 31.5288 35.5023C31.3628 35.389 31.23 35.2445 31.1304 35.0687C31.0308 34.8929 30.981 34.6849 30.981 34.4447H31.8628C31.8628 34.5775 31.8833 34.6898 31.9243 34.7816C31.9653 34.8734 32.0229 34.9476 32.0972 35.0043C32.1733 35.0609 32.2632 35.1019 32.3667 35.1273C32.4722 35.1527 32.5874 35.1654 32.7124 35.1654C32.8647 35.1654 32.9897 35.1439 33.0874 35.101C33.187 35.058 33.2603 34.9984 33.3071 34.9222C33.356 34.8461 33.3804 34.7601 33.3804 34.6644ZM36.7642 31.515V35.7806H35.8882V31.515H36.7642ZM38.0767 31.515V32.2035H34.5962V31.515H38.0767ZM41.4399 35.0951V35.7806H39.1694V35.0951H41.4399ZM39.4565 31.515V35.7806H38.5776V31.515H39.4565ZM41.144 33.2523V33.9203H39.1694V33.2523H41.144ZM41.437 31.515V32.2035H39.1694V31.515H41.437ZM41.9526 31.515H43.5435C43.8696 31.515 44.1499 31.5638 44.3843 31.6615C44.6206 31.7592 44.8022 31.9037 44.9292 32.0951C45.0562 32.2865 45.1196 32.5219 45.1196 32.8011C45.1196 33.0297 45.0806 33.226 45.0024 33.39C44.9263 33.5521 44.8179 33.6879 44.6772 33.7972C44.5386 33.9047 44.3755 33.9906 44.188 34.0551L43.9097 34.2015H42.5269L42.521 33.516H43.5493C43.7036 33.516 43.8315 33.4886 43.9331 33.434C44.0347 33.3793 44.1108 33.3031 44.1616 33.2054C44.2144 33.1078 44.2407 32.9945 44.2407 32.8656C44.2407 32.7289 44.2153 32.6107 44.1646 32.5111C44.1138 32.4115 44.0366 32.3353 43.9331 32.2826C43.8296 32.2299 43.6997 32.2035 43.5435 32.2035H42.8315V35.7806H41.9526V31.515ZM44.3374 35.7806L43.3647 33.8793L44.2935 33.8734L45.2778 35.7396V35.7806H44.3374ZM48.9517 34.2601H47.8647V33.5746H48.9517C49.1196 33.5746 49.2563 33.5472 49.3618 33.4926C49.4673 33.4359 49.5444 33.3578 49.5933 33.2582C49.6421 33.1586 49.6665 33.0463 49.6665 32.9213C49.6665 32.7943 49.6421 32.6761 49.5933 32.5668C49.5444 32.4574 49.4673 32.3695 49.3618 32.3031C49.2563 32.2367 49.1196 32.2035 48.9517 32.2035H48.1694V35.7806H47.2905V31.515H48.9517C49.2856 31.515 49.5718 31.5756 49.8101 31.6967C50.0503 31.8158 50.2339 31.9808 50.3608 32.1918C50.4878 32.4027 50.5513 32.6439 50.5513 32.9154C50.5513 33.1908 50.4878 33.4291 50.3608 33.6302C50.2339 33.8314 50.0503 33.9867 49.8101 34.0961C49.5718 34.2054 49.2856 34.2601 48.9517 34.2601ZM54.02 35.0951V35.7806H51.7495V35.0951H54.02ZM52.0366 31.515V35.7806H51.1577V31.515H52.0366ZM53.7241 33.2523V33.9203H51.7495V33.2523H53.7241ZM54.0171 31.515V32.2035H51.7495V31.515H54.0171ZM56.4985 31.515V35.7806H55.6226V31.515H56.4985ZM57.811 31.515V32.2035H54.3306V31.515H57.811ZM61.1743 35.0951V35.7806H58.9038V35.0951H61.1743ZM59.1909 31.515V35.7806H58.312V31.515H59.1909ZM60.8784 33.2523V33.9203H58.9038V33.2523H60.8784ZM61.1714 31.515V32.2035H58.9038V31.515H61.1714ZM61.687 31.515H63.2778C63.604 31.515 63.8843 31.5638 64.1187 31.6615C64.355 31.7592 64.5366 31.9037 64.6636 32.0951C64.7905 32.2865 64.854 32.5219 64.854 32.8011C64.854 33.0297 64.8149 33.226 64.7368 33.39C64.6606 33.5521 64.5522 33.6879 64.4116 33.7972C64.2729 33.9047 64.1099 33.9906 63.9224 34.0551L63.644 34.2015H62.2612L62.2554 33.516H63.2837C63.438 33.516 63.5659 33.4886 63.6675 33.434C63.769 33.3793 63.8452 33.3031 63.896 33.2054C63.9487 33.1078 63.9751 32.9945 63.9751 32.8656C63.9751 32.7289 63.9497 32.6107 63.8989 32.5111C63.8481 32.4115 63.771 32.3353 63.6675 32.2826C63.564 32.2299 63.4341 32.2035 63.2778 32.2035H62.5659V35.7806H61.687V31.515ZM64.0718 35.7806L63.0991 33.8793L64.0278 33.8734L65.0122 35.7396V35.7806H64.0718ZM67.7515 34.6644C67.7515 34.5883 67.7397 34.5199 67.7163 34.4594C67.6948 34.3969 67.6538 34.3402 67.5933 34.2894C67.5327 34.2367 67.4478 34.1849 67.3384 34.1342C67.229 34.0834 67.0874 34.0306 66.9136 33.976C66.7202 33.9135 66.5366 33.8431 66.3628 33.765C66.1909 33.6869 66.0386 33.5961 65.9058 33.4926C65.7749 33.3871 65.6714 33.265 65.5952 33.1263C65.521 32.9877 65.4839 32.8265 65.4839 32.6429C65.4839 32.4652 65.5229 32.3041 65.6011 32.1595C65.6792 32.0131 65.7886 31.8881 65.9292 31.7845C66.0698 31.6791 66.2358 31.598 66.4272 31.5414C66.6206 31.4847 66.8325 31.4564 67.063 31.4564C67.3774 31.4564 67.6519 31.5131 67.8862 31.6263C68.1206 31.7396 68.3022 31.8949 68.4312 32.0922C68.562 32.2894 68.6274 32.515 68.6274 32.7689H67.7544C67.7544 32.6439 67.728 32.5345 67.6753 32.4408C67.6245 32.3451 67.5464 32.2699 67.4409 32.2152C67.3374 32.1605 67.2065 32.1332 67.0483 32.1332C66.896 32.1332 66.769 32.1566 66.6675 32.2035C66.5659 32.2484 66.4897 32.3099 66.439 32.3881C66.3882 32.4642 66.3628 32.5502 66.3628 32.6459C66.3628 32.7181 66.3804 32.7836 66.4155 32.8422C66.4526 32.9008 66.5073 32.9554 66.5796 33.0062C66.6519 33.057 66.7407 33.1049 66.8462 33.1498C66.9517 33.1947 67.0737 33.2386 67.2124 33.2816C67.4448 33.3519 67.6489 33.431 67.8247 33.5189C68.0024 33.6068 68.1509 33.7054 68.27 33.8148C68.3892 33.9242 68.479 34.0482 68.5396 34.1869C68.6001 34.3256 68.6304 34.4828 68.6304 34.6586C68.6304 34.8441 68.5942 35.0101 68.522 35.1566C68.4497 35.3031 68.3452 35.4271 68.2085 35.5287C68.0718 35.6302 67.9087 35.7074 67.7192 35.7601C67.5298 35.8129 67.3179 35.8392 67.0835 35.8392C66.8726 35.8392 66.6646 35.8119 66.4595 35.7572C66.2544 35.7006 66.0679 35.6156 65.8999 35.5023C65.7339 35.389 65.6011 35.2445 65.5015 35.0687C65.4019 34.8929 65.3521 34.6849 65.3521 34.4447H66.2339C66.2339 34.5775 66.2544 34.6898 66.2954 34.7816C66.3364 34.8734 66.394 34.9476 66.4683 35.0043C66.5444 35.0609 66.6343 35.1019 66.7378 35.1273C66.8433 35.1527 66.9585 35.1654 67.0835 35.1654C67.2358 35.1654 67.3608 35.1439 67.4585 35.101C67.5581 35.058 67.6313 34.9984 67.6782 34.9222C67.7271 34.8461 67.7515 34.7601 67.7515 34.6644Z"
                  />
                </symbol>
                <symbol id="group5" viewBox="0 0 63 46">
                  <path
                    fill="var(--icon-color, #000)" d="M4.79189 38.373C5.03736 38.6465 5.16811 38.9891 5.16126 39.3407C5.17379 39.57 5.12885 39.7989 5.02977 40.0105C4.93069 40.2221 4.78001 40.4109 4.5889 40.563C4.11204 40.8872 3.52126 41.0457 2.92505 41.0093H0V34.8769H2.86515C3.43071 34.8431 3.99178 34.9871 4.45246 35.2844C4.63749 35.4238 4.78401 35.6 4.88045 35.7991C4.97689 35.9982 5.02062 36.2148 5.00819 36.4317C5.025 36.77 4.90698 37.1026 4.67542 37.3694C4.4531 37.6131 4.14588 37.782 3.80356 37.8488C4.19162 37.9125 4.54189 38.0983 4.79189 38.373ZM1.36103 37.4473H2.58562C2.86394 37.4659 3.14036 37.3935 3.3643 37.2436C3.45625 37.1686 3.52779 37.0755 3.57337 36.9716C3.61896 36.8677 3.63737 36.7558 3.62719 36.6445C3.63583 36.5335 3.61704 36.4222 3.57215 36.3186C3.52727 36.215 3.45742 36.1217 3.36763 36.0453C3.13699 35.8911 2.85198 35.8177 2.56566 35.8386H1.36103V37.4473ZM3.4841 39.799C3.58239 39.7222 3.65965 39.6261 3.70986 39.518C3.76008 39.4099 3.7819 39.2928 3.77361 39.1759C3.78111 39.0576 3.7583 38.9394 3.70694 38.8303C3.65559 38.7212 3.57707 38.6242 3.47745 38.5468C3.23785 38.3869 2.94319 38.3084 2.64552 38.3251H1.36103V40.0117H2.66216C2.95502 40.0269 3.24492 39.9519 3.4841 39.799Z"
                  />
                  <path
                    fill="var(--icon-color, #000)" d="M10.6487 41.0093L9.05471 38.6127H8.45573V41.0093H7.08472V34.8769H9.68032C10.3346 34.8358 10.9814 35.0224 11.4873 35.3982C11.8501 35.731 12.0689 36.1696 12.1043 36.6348C12.1397 37.1001 11.9893 37.5614 11.6803 37.9357C11.36 38.2659 10.9226 38.4861 10.4424 38.5588L12.1395 41.0093H10.6487ZM8.45573 37.7769H9.57716C10.3558 37.7769 10.7452 37.4673 10.7452 36.8482C10.7531 36.7217 10.7318 36.5952 10.6825 36.4766C10.6333 36.358 10.5571 36.2499 10.459 36.1591C10.2129 35.9749 9.89602 35.8855 9.57716 35.9105H8.44242L8.45573 37.7769Z"
                  />
                  <path
                    fill="var(--icon-color, #000)" d="M18.1426 39.7752H15.4106L14.928 41.0094H13.4905L15.9996 34.9459H17.5536L20.0527 41.0094H18.6151L18.1426 39.7752ZM17.7766 38.8465L16.7782 36.2581L15.7799 38.8465H17.7766Z"
                  />
                  <path
                    fill="var(--icon-color, #000)" d="M27.5234 41.0094H26.1624L23.1109 36.8392V41.0094H21.7532V34.877H23.1109L26.1624 39.0711V34.877H27.5234V41.0094Z"
                  />
                  <path
                    fill="var(--icon-color, #000)" d="M35.2903 39.5415C35.0089 40.0045 34.5801 40.3811 34.059 40.6229C33.4666 40.8923 32.8091 41.0251 32.1456 41.0094H29.723V34.877H32.1456C32.8079 34.8614 33.4646 34.991 34.059 35.2545C34.58 35.4908 35.0092 35.8637 35.2903 36.324C35.5704 36.8227 35.7164 37.3738 35.7164 37.9327C35.7164 38.4916 35.5704 39.0427 35.2903 39.5415ZM33.7329 39.3947C34.1213 38.9873 34.3349 38.4681 34.3349 37.9312C34.3349 37.3943 34.1213 36.8752 33.7329 36.4678C33.2634 36.0988 32.6511 35.9114 32.0291 35.9465H31.0841V39.9159H32.0291C32.6511 39.951 33.2634 39.7637 33.7329 39.3947Z"
                  />
                  <path
                    fill="var(--icon-color, #000)" d="M18.9945 0.766724C18.9945 0.766724 36.5614 6.73736 36.1887 15.3773V29.9908C36.1887 29.9908 18.6351 24.0172 19.0012 15.3773L18.9945 0.766724Z"
                  />
                  <path
                    fill="var(--icon-color, #000)" d="M51.8389 26.5694C55.1565 24.5139 58.9941 23.2408 63 22.8666V18.292C58.3842 19.8935 54.4686 22.7975 51.8389 26.5694Z"
                  />
                  <path
                    fill="var(--icon-color, #000)" d="M49.8456 27.9478C52.5611 23.0253 57.2686 19.2268 63 17.3336V4.1521C63 4.1521 37.9823 12.6572 38.5114 24.9609V45.7668C38.5114 45.7668 39.6262 45.3863 41.3799 44.6733C41.3799 44.0083 41.3799 43.3372 41.4598 42.6631C41.9776 36.9511 44.9939 31.6581 49.8456 27.9478Z"
                  />
                  <path
                    fill="var(--icon-color, #000)" d="M47.4663 35.6769C47.5978 34.234 47.891 32.8067 48.3415 31.4169C45.3205 34.6211 43.491 38.5971 43.1104 42.7859C43.0738 43.1814 43.0538 43.5768 43.0438 43.9843C44.4648 43.3701 46.1186 42.6032 47.8557 41.7015C47.4124 39.7197 47.2813 37.6916 47.4663 35.6769Z"
                  />
                  <path
                    fill="var(--icon-color, #000)" d="M48.4612 35.7519C48.2947 37.5746 48.3988 39.4092 48.7707 41.2072C55.6058 37.5254 63.2861 31.8363 62.99 24.961V24.3618C58.1066 24.8537 53.5377 26.7756 49.9853 29.8321C49.1536 31.7263 48.6399 33.7214 48.4612 35.7519Z"
                  />
                </symbol>
                <symbol id="group6" viewBox="0 0 94 45">
                  <path
                    fill="var(--icon-color, #000)" d="M47.5293 21.4433C47.0853 20.8524 46.8729 20.1542 46.9233 19.4513V16.5632C46.9233 15.6779 47.1242 15.0051 47.5259 14.5448C47.9277 14.0845 48.6177 13.8554 49.596 13.8573C50.5153 13.8573 51.1679 14.0532 51.5537 14.4449C51.9746 14.9447 52.1794 15.556 52.1325 16.1725V16.8512H50.488V16.1637C50.4939 15.9386 50.4779 15.7136 50.4404 15.4909C50.4167 15.3386 50.3339 15.1977 50.2055 15.0913C50.0366 14.9766 49.8239 14.921 49.6096 14.9356C49.3843 14.9211 49.1609 14.9797 48.9832 15.1001C48.8399 15.218 48.7444 15.3725 48.7108 15.5408C48.6636 15.7765 48.642 16.0155 48.6461 16.2547V19.7598C48.6202 20.0979 48.6927 20.4363 48.8572 20.744C48.939 20.8482 49.0526 20.9307 49.1854 20.9826C49.3182 21.0344 49.465 21.0536 49.6096 21.0378C49.8203 21.0528 50.0293 20.9958 50.1918 20.8792C50.3258 20.7644 50.412 20.6147 50.437 20.4532C50.4754 20.2206 50.4925 19.9858 50.488 19.751V19.04H52.1325V19.6893C52.1787 20.3319 51.9789 20.9699 51.5639 21.505C51.186 21.9339 50.5425 22.1484 49.596 22.1484C48.6495 22.1484 47.9345 21.9193 47.5293 21.4433Z"
                  />
                  <path
                    fill="var(--icon-color, #000)" d="M54.3763 21.4727C53.961 21.0232 53.7533 20.368 53.7533 19.5013V16.4633C53.7533 15.6054 53.961 14.9561 54.3763 14.5154C54.7917 14.0747 55.4863 13.8554 56.46 13.8573C57.4269 13.8573 58.1181 14.0767 58.5334 14.5154C58.9488 14.9561 59.1599 15.6054 59.1599 16.4633V19.5013C59.1599 20.3592 58.9488 21.0173 58.5266 21.4697C58.1044 21.9222 57.4167 22.1484 56.46 22.1484C55.5033 22.1484 54.7951 21.9193 54.3763 21.4727ZM57.226 20.744C57.3748 20.4625 57.4425 20.154 57.4235 19.845V16.1255C57.4426 15.8224 57.376 15.5199 57.2294 15.2441C57.146 15.1377 57.0296 15.0538 56.8936 15.0019C56.7575 14.9499 56.6073 14.932 56.46 14.9503C56.3123 14.9325 56.1617 14.9506 56.0252 15.0025C55.8887 15.0544 55.7717 15.138 55.6871 15.2441C55.5374 15.5191 55.4695 15.8221 55.4897 16.1255V19.8626C55.469 20.1718 55.5368 20.4805 55.6871 20.7617C55.783 20.8564 55.9013 20.9324 56.034 20.9845C56.1667 21.0365 56.3108 21.0634 56.4566 21.0634C56.6024 21.0634 56.7465 21.0365 56.8792 20.9845C57.0119 20.9324 57.1302 20.8564 57.226 20.7617V20.744Z"
                  />
                  <path
                    fill="var(--icon-color, #000)" d="M61.1378 13.946H62.9083L64.2395 19.5512L65.6014 13.946H67.3242L67.4978 22.0365H66.2244L66.0883 16.4137L64.774 22.0365H63.7526L62.3907 16.3931L62.2648 22.0365H60.9778L61.1378 13.946Z"
                  />
                  <path
                    fill="var(--icon-color, #000)" d="M69.4829 13.946H72.2406C73.8295 13.946 74.6239 14.7118 74.6239 16.2433C74.6239 17.7102 73.7875 18.4427 72.1147 18.4407H71.175V22.0365H69.4727L69.4829 13.946ZM71.8389 17.4037C72.0071 17.4221 72.1779 17.4088 72.3396 17.3647C72.5012 17.3206 72.6499 17.2467 72.7752 17.1481C72.9704 16.8749 73.0565 16.554 73.0203 16.2345C73.0292 15.9877 73.0018 15.7409 72.9386 15.5001C72.9143 15.4196 72.8717 15.3442 72.8133 15.2781C72.7548 15.212 72.6817 15.1567 72.5981 15.1152C72.3618 15.0174 72.1006 14.973 71.8389 14.986H71.1784V17.4037H71.8389Z"
                  />
                  <path
                    fill="var(--icon-color, #000)" d="M77.0787 13.946H78.907L80.783 22.0365H79.1964L78.8253 20.171H77.1945L76.8132 22.0365H75.2028L77.0787 13.946ZM78.6415 19.2339L78.0048 15.8379L77.3681 19.2339H78.6415Z"
                  />
                  <path
                    fill="var(--icon-color, #000)" d="M82.2981 13.946H83.4897L85.7709 18.5612V13.946H87.1838V22.0365H86.0501L83.7553 17.2186V22.0365H82.2947L82.2981 13.946Z"
                  />
                  <path
                    fill="var(--icon-color, #000)" d="M90.4932 18.9516L88.5968 13.9573H90.1936L91.3512 17.1654L92.4373 13.9573H94L92.1274 18.9516V22.0363H90.4932V18.9516Z"
                  />
                  <path
                    fill="var(--icon-color, #000)" d="M50.1579 25.5736V25.9967H48.7688V29.2842H48.1866V25.9967H46.7906V25.5736H50.1579Z"
                  />
                  <path
                    fill="var(--icon-color, #000)" d="M54.5123 29.2844H54.0629C54.0173 29.2869 53.9722 29.2743 53.9369 29.2492C53.9029 29.2277 53.8769 29.1981 53.862 29.164L53.4603 28.2827H51.5332L51.1314 29.164C51.12 29.2009 51.0991 29.235 51.0702 29.2639C51.0345 29.2885 50.9897 29.301 50.9442 29.2991H50.4948L52.1971 25.5887H52.7895L54.5123 29.2844ZM51.6932 27.9066H53.3003L52.6193 26.3966C52.5691 26.2824 52.527 26.1657 52.4933 26.047C52.4695 26.1175 52.4491 26.1851 52.4286 26.2439L52.3674 26.3996L51.6932 27.9066Z"
                  />
                  <path
                    fill="var(--icon-color, #000)" d="M57.4472 28.9202C57.5538 28.925 57.6606 28.925 57.7672 28.9202C57.8593 28.912 57.9504 28.8972 58.0396 28.8761C58.123 28.8584 58.2049 28.8359 58.2848 28.8085C58.3597 28.7821 58.4346 28.7498 58.5129 28.7174V27.883H57.8319C57.8151 27.8838 57.7982 27.8816 57.7824 27.8766C57.7666 27.8715 57.7522 27.8637 57.74 27.8536C57.7288 27.8453 57.72 27.8349 57.7141 27.8232C57.7082 27.8115 57.7054 27.7988 57.706 27.786V27.501H59.027V28.9231C58.9192 28.9897 58.8053 29.0486 58.6865 29.0994C58.5651 29.1511 58.4386 29.1934 58.3086 29.2257C58.1694 29.2611 58.027 29.2866 57.883 29.3021C57.7179 29.3179 57.552 29.3258 57.3859 29.3256C57.0923 29.3278 56.8009 29.2809 56.5279 29.1875C56.273 29.0991 56.0414 28.9672 55.847 28.7997C55.6574 28.6305 55.5082 28.4309 55.4078 28.2121C55.3005 27.9661 55.2474 27.705 55.2512 27.4423C55.2476 27.1778 55.2995 26.9151 55.4044 26.6666C55.5023 26.4467 55.6518 26.2466 55.8436 26.079C56.0379 25.912 56.2696 25.7811 56.5245 25.6941C56.8161 25.5994 57.1255 25.5526 57.437 25.556C57.5955 25.5558 57.7537 25.5666 57.9102 25.5883C58.0486 25.6077 58.1844 25.6392 58.3154 25.6823C58.4345 25.7209 58.5486 25.7701 58.6559 25.8292C58.7602 25.8872 58.8593 25.952 58.9521 26.0231L58.7887 26.2523C58.7759 26.2732 58.7568 26.2908 58.7334 26.3032C58.7101 26.3156 58.6833 26.3224 58.6559 26.3228C58.6182 26.3218 58.5816 26.3116 58.5503 26.2934C58.4993 26.2699 58.4448 26.2406 58.3835 26.2053C58.3111 26.1661 58.2348 26.1327 58.1554 26.1054C58.0539 26.0703 57.9491 26.0427 57.8421 26.0231C57.6995 26.0005 57.5547 25.9896 57.4097 25.9908C57.1851 25.9887 56.9621 26.0236 56.7526 26.0936C56.5632 26.1592 56.3924 26.2595 56.2522 26.3875C56.1111 26.5209 56.0033 26.6779 55.9355 26.8488C55.7834 27.2506 55.7834 27.6838 55.9355 28.0857C56.01 28.2602 56.126 28.4194 56.276 28.5529C56.4156 28.6802 56.5851 28.7804 56.7731 28.8467C56.9896 28.9108 57.219 28.9359 57.4472 28.9202Z"
                  />
                  <path
                    fill="var(--icon-color, #000)" d="M62.8744 28.8611H64.7334V29.2842H62.3058V25.5736H62.888L62.8744 28.8611Z"
                  />
                  <path d="M66.6672 29.2842H66.085V25.5736H66.6672V29.2842Z" />
                  <path
                    fill="var(--icon-color, #000)" d="M68.8325 25.5913C68.8671 25.6083 68.8973 25.6313 68.9211 25.6589L71.4098 28.4559C71.4065 28.4119 71.4065 28.3677 71.4098 28.3237C71.4098 28.2826 71.4098 28.2414 71.4098 28.2032V25.559H71.9171V29.2845H71.6243C71.581 29.2875 71.5374 29.2804 71.4984 29.2639C71.463 29.2454 71.4319 29.2215 71.4064 29.1934L68.9211 26.3993C68.9211 26.4433 68.9211 26.4845 68.9211 26.5256C68.9211 26.5667 68.9211 26.6049 68.9211 26.6402V29.2845H68.4342V25.5737H68.7372C68.7701 25.5737 68.8025 25.5797 68.8325 25.5913Z"
                  />
                  <path
                    fill="var(--icon-color, #000)" d="M76.2037 25.5736V25.982H74.1405V27.2071H75.8122V27.6008H74.1405V28.8671H76.2037V29.2754H73.5413V25.5736H76.2037Z"
                  />
                  <path
                    fill="var(--icon-color, #000)" d="M15.1952 2.65871L41.047 8.99274V31.1883L15.1952 24.8572V2.65871ZM13.5371 0.766724V25.9354L42.7017 33.0832V7.91748L13.5371 0.766724Z"
                  />
                  <path
                    fill="var(--icon-color, #000)" d="M29.168 44.7667L0 37.6129V12.4469L29.168 19.5977V44.7667Z"
                  />
                  <path
                    fill="var(--icon-color, #000)" d="M14.0205 2.37371L39.5352 8.62831L28.6845 17.9941L3.16636 11.7365L14.0205 2.37371ZM13.537 0.766724L0 12.4475L29.168 19.5981L42.7016 7.91736L13.537 0.766724Z"
                  />
                  <path
                    fill="var(--icon-color, #000)" d="M30.8091 43.3509L42.7016 33.0863L30.8091 30.1691V43.3509Z"
                  />
                </symbol>
<symbol id="vector" viewBox="0 0 8 8">
<path d="M8 0.805714L7.19429 0L4 3.19429L0.805714 0L0 0.805714L3.19429 4L0 7.19429L0.805714 8L4 4.80571L7.19429 8L8 7.19429L4.80571 4L8 0.805714Z"/>
</symbol>
<symbol id="icon-send" viewBox="0 0 24 20">
<path d="M24 0L0 11.25L7.66994 13.6172L19.5 4.375L10.5017 14.4913L10.509 14.4936L10.5 14.4913V20L14.8013 15.8183L20.2501 17.5L24 0Z" fill="white"/>
</symbol>
<symbol id="person1" viewBox="0 0 18 18">
<path d="M9 9C10.6575 9 12 7.6575 12 6C12 4.3425 10.6575 3 9 3C7.3425 3 6 4.3425 6 6C6 7.6575 7.3425 9 9 9ZM9 10.5C6.9975 10.5 3 11.505 3 13.5V14.25C3 14.6625 3.3375 15 3.75 15H14.25C14.6625 15 15 14.6625 15 14.25V13.5C15 11.505 11.0025 10.5 9 10.5Z"/>
</symbol>
<symbol id="email1" viewBox="0 0 18 24">
<path d="M15 6H3C2.175 6 1.5075 6.675 1.5075 7.5L1.5 16.5C1.5 17.325 2.175 18 3 18H15C15.825 18 16.5 17.325 16.5 16.5V7.5C16.5 6.675 15.825 6 15 6ZM14.7 9.1875L9.3975 12.5025C9.1575 12.6525 8.8425 12.6525 8.6025 12.5025L3.3 9.1875C3.1125 9.0675 3 8.865 3 8.6475C3 8.145 3.5475 7.845 3.975 8.1075L9 11.25L14.025 8.1075C14.4525 7.845 15 8.145 15 8.6475C15 8.865 14.8875 9.0675 14.7 9.1875Z"/>
</symbol>
<symbol id="phone1" viewBox="0 0 18 24">
<path d="M14.7263 13.8651L12.8881 13.6552C12.4467 13.6046 12.0125 13.7566 11.7013 14.0677L10.3697 15.3993C8.3217 14.3572 6.64276 12.6855 5.60067 10.6303L6.93947 9.29144C7.25065 8.98025 7.40263 8.54605 7.35197 8.1046L7.1421 6.28092C7.05526 5.55 6.44013 5 5.70198 5H4.45002C3.63226 5 2.952 5.68026 3.00266 6.49802C3.38621 12.6783 8.32894 17.6138 14.5019 17.9973C15.3197 18.048 15.9999 17.3677 15.9999 16.55V15.298C16.0072 14.5671 15.4572 13.952 14.7263 13.8651Z"/>
</symbol>
<symbol id="checkbox" viewBox="0 0 16 16">
<path d="M11.4456 4.25506C11.6184 4.08965 11.8483 3.99821 12.0869 4.00003C12.3255 4.00184 12.5541 4.09677 12.7244 4.26478C12.8947 4.4328 12.9934 4.66075 12.9997 4.90055C13.006 5.14034 12.9194 5.37323 12.7582 5.55005L7.86357 11.7044C7.7794 11.7955 7.67782 11.8686 7.5649 11.9194C7.45198 11.9702 7.33003 11.9975 7.20636 11.9998C7.08268 12.0021 6.95981 11.9793 6.8451 11.9328C6.73038 11.8863 6.62618 11.817 6.53872 11.729L3.29283 8.46564C3.20243 8.38096 3.12993 8.27884 3.07965 8.16537C3.02936 8.05191 3.00232 7.92942 3.00014 7.80522C2.99796 7.68102 3.02069 7.55765 3.06696 7.44248C3.11323 7.3273 3.18211 7.22267 3.26947 7.13483C3.35684 7.047 3.4609 6.97775 3.57547 6.93123C3.69003 6.88471 3.81273 6.86186 3.93627 6.86405C4.0598 6.86624 4.18163 6.89343 4.29449 6.94398C4.40734 6.99454 4.50892 7.06743 4.59315 7.15831L7.16189 9.73967L11.4223 4.28219C11.4299 4.27269 11.4381 4.26364 11.4468 4.25506H11.4456Z" fill="#F4F4FD"/>
</symbol>
<symbol id="burger" viewBox="0 0 32 22">
<path d="M1.34766 20.0431H30.8861M1.34766 10.7354H30.8861M1.34766 1.42773H30.8861" stroke="#2E2F42" stroke-width="3" stroke-linecap="round" stroke-linejoin="round"/>
</symbol>
</defs>
</svg>
